<?xml version="1.0" encoding="UTF-8"?>
<svg xmlns="http://www.w3.org/2000/svg" viewBox="0 0 1100 1060" width="1100" height="1060">
<defs>
  <style>
    text { font-family: "Noto Sans CJK SC", "WenQuanYi Micro Hei", "Microsoft YaHei", sans-serif; }
    .title { font-size: 26px; font-weight: 700; fill: #5c3d1e; }
    .subtitle { font-size: 13px; fill: #8b6f47; }
    .palace-name { font-size: 17px; font-weight: 700; fill: #5c3d1e; }
    .palace-sub { font-size: 10px; fill: #6b5030; }
    .gate-name { font-size: 11px; font-weight: 600; fill: #3a2510; }
    .main-gate { font-size: 12px; font-weight: 700; fill: #8b0000; }
    .bldg-name { font-size: 9px; fill: #5c3d1e; }
    .water-text { font-size: 11px; fill: #2a5566; }
    .note-text { font-size: 10px; fill: #5c4a2a; }
    .not-built { font-size: 10px; fill: #888; font-style: italic; }
    .route-text { font-size: 11px; fill: #c00000; font-weight: 700; }
    .legend-text { font-size: 11px; fill: #4a3820; }
  </style>
</defs>

<!-- 背景 -->
<rect x="0" y="0" width="1100" height="1050" fill="#faf6ea"/>

<!-- 标题 -->
<text x="550" y="40" text-anchor="middle" class="title">汉长安城复原平面图</text>
<text x="550" y="62" text-anchor="middle" class="subtitle">张骞出使西域时期（前139-前126年） · 依据考古实测数据绘制</text>

<!-- 绘图区域起始 y=80 -->

<!-- 渭河（城北） -->
<path d="M 0,190 Q 100,170 200,180 Q 350,195 500,175 Q 650,155 800,165 Q 950,175 1100,155 L 1100,110 Q 900,125 700,135 Q 500,145 300,140 Q 150,135 0,150 Z" fill="#a8c8d8" opacity="0.6"/>
<text x="900" y="145" class="water-text" font-weight="600">渭 河</text>

<!-- 泬水（城西） -->
<path d="M 120,900 Q 100,700 110,550 Q 115,400 140,280 Q 160,200 180,180 L 200,180 Q 170,280 160,400 Q 150,540 145,680 Q 140,830 160,900 Z" fill="#a8c8d8" opacity="0.5"/>
<text x="125" y="500" class="water-text" transform="rotate(-85,125,500)">泬水（潏水）</text>

<!-- 龙首原高地 -->
<path d="M 180,480 Q 300,440 450,420 Q 600,410 750,430 Q 850,450 920,500 L 920,540 Q 750,480 600,470 Q 450,465 300,490 Q 200,510 180,530 Z" fill="#e0d0a8" opacity="0.4"/>
<text x="480" y="455" class="water-text" font-style="italic">龙首原高地</text>

<!-- 城壕（护城河） -->
<path d="M 180,210 L 180,760 Q 200,790 230,800 L 480,870 Q 520,880 560,865 L 700,820 Q 750,790 800,800 L 920,830 Q 940,835 950,820 L 950,270 Q 945,250 930,245 L 780,240 Q 720,235 680,220 L 500,205 Q 420,200 350,210 L 230,215 Q 200,215 180,210 Z" fill="none" stroke="#7a9aaa" stroke-width="10" stroke-linejoin="round" opacity="0.4"/>

<!-- 城墙主体（夯土） -->
<path d="M 180,220 L 180,750 Q 200,780 240,795 L 490,865 Q 530,875 570,860 L 710,815 Q 760,785 810,795 L 920,825 Q 940,830 945,815 L 945,280 Q 940,260 925,255 L 770,250 Q 710,245 670,230 L 490,215 Q 410,210 340,220 L 220,225 Q 190,225 180,220 Z" fill="#d4b88a" stroke="#8b6f47" stroke-width="3" stroke-linejoin="round"/>

<!-- 北墙城门 -->
<rect x="300" y="205" width="40" height="20" fill="#5c3d1e"/>
<text x="320" y="198" text-anchor="middle" class="gate-name">横门</text>
<text x="320" y="248" text-anchor="middle" font-size="10" fill="#c00000" font-weight="600">（张骞出使主要出城通道）</text>

<rect x="540" y="205" width="40" height="20" fill="#5c3d1e"/>
<text x="560" y="198" text-anchor="middle" class="gate-name">厨城门</text>

<rect x="790" y="228" width="40" height="20" fill="#5c3d1e" transform="rotate(5,810,238)"/>
<text x="835" y="240" class="gate-name">洛城门</text>

<!-- 东墙城门 -->
<rect x="940" y="430" width="20" height="40" fill="#5c3d1e"/>
<text x="972" y="455" class="gate-name">宣平门（东都门）</text>

<rect x="940" y="590" width="20" height="40" fill="#5c3d1e"/>
<text x="972" y="615" class="gate-name">清明门</text>

<rect x="940" y="740" width="20" height="40" fill="#5c3d1e"/>
<text x="972" y="765" class="gate-name">霸城门（青门）</text>

<!-- 南墙城门 -->
<rect x="760" y="820" width="40" height="20" fill="#5c3d1e" transform="rotate(-8,780,830)"/>
<text x="740" y="872" text-anchor="middle" class="gate-name">覆盎门</text>

<rect x="520" y="855" width="40" height="20" fill="#8b0000"/>
<text x="540" y="892" text-anchor="middle" class="main-gate">安 门（中轴线正门）</text>

<rect x="260" y="780" width="40" height="20" fill="#5c3d1e" transform="rotate(12,280,790)"/>
<text x="225" y="818" text-anchor="end" class="gate-name">西安门（对未央宫）</text>

<!-- 西墙城门 -->
<rect x="170" y="320" width="20" height="40" fill="#5c3d1e"/>
<text x="125" y="345" text-anchor="end" class="gate-name">章城门</text>

<rect x="170" y="490" width="20" height="40" fill="#5c3d1e"/>
<text x="125" y="515" text-anchor="end" class="gate-name">直城门（龙楼门）</text>

<rect x="170" y="670" width="20" height="40" fill="#5c3d1e"/>
<text x="125" y="695" text-anchor="end" class="gate-name">雍门（西城门）</text>

<!-- 主干道 -->
<g stroke="#c9a96e" stroke-width="12" opacity="0.7" fill="none" stroke-linecap="round">
  <line x1="540" y1="855" x2="540" y2="220"/>
  <line x1="940" y1="450" x2="540" y2="450"/>
  <line x1="940" y1="610" x2="340" y2="610"/>
  <line x1="940" y1="760" x2="540" y2="760"/>
  <line x1="180" y1="510" x2="540" y2="510"/>
  <line x1="180" y1="690" x2="540" y2="690"/>
  <line x1="320" y1="220" x2="320" y2="690"/>
  <line x1="560" y1="220" x2="560" y2="760"/>
  <line x1="810" y1="240" x2="600" y2="510"/>
</g>
<g stroke="#a68850" stroke-width="2.5" opacity="0.5" stroke-dasharray="8,6">
  <line x1="540" y1="855" x2="540" y2="220"/>
  <line x1="320" y1="220" x2="320" y2="690"/>
</g>

<!-- 未央宫 -->
<rect x="195" y="495" width="310" height="290" fill="#c9a86c" fill-opacity="0.35" stroke="#7a5c2e" stroke-width="2.5"/>
<text x="350" y="530" text-anchor="middle" class="palace-name">未 央 宫</text>
<text x="350" y="552" text-anchor="middle" class="palace-sub">（西宫 · 大朝正宫 · 5平方公里）</text>

<rect x="280" y="570" width="100" height="130" fill="#b8904a" fill-opacity="0.5" stroke="#6b4a1e" stroke-width="1.5"/>
<text x="330" y="640" text-anchor="middle" class="bldg-name" font-weight="600">前殿</text>
<text x="330" y="655" text-anchor="middle" class="bldg-name">（龙首原台基）</text>

<rect x="210" y="610" width="50" height="35" fill="#d4b88a" stroke="#8b6f47" stroke-width="0.8"/>
<text x="235" y="632" text-anchor="middle" class="bldg-name">石渠阁</text>

<rect x="210" y="555" width="50" height="35" fill="#d4b88a" stroke="#8b6f47" stroke-width="0.8"/>
<text x="235" y="577" text-anchor="middle" class="bldg-name">天禄阁</text>

<rect x="400" y="570" width="70" height="45" fill="#d4b88a" stroke="#8b6f47" stroke-width="0.8"/>
<text x="435" y="592" text-anchor="middle" class="bldg-name">椒房殿</text>
<text x="435" y="605" text-anchor="middle" class="bldg-name" font-size="8">（皇后）</text>

<rect x="400" y="635" width="70" height="45" fill="#d4b88a" stroke="#8b6f47" stroke-width="0.8"/>
<text x="435" y="662" text-anchor="middle" class="bldg-name">少府</text>

<rect x="400" y="700" width="70" height="35" fill="#d4b88a" stroke="#8b6f47" stroke-width="0.8"/>
<text x="435" y="722" text-anchor="middle" class="bldg-name">中央官署</text>

<ellipse cx="245" cy="750" rx="35" ry="25" fill="#a8c8d8" fill-opacity="0.6" stroke="#5a8aaa" stroke-width="1"/>
<text x="245" y="755" text-anchor="middle" class="bldg-name" fill="#2a5566">沧池</text>

<rect x="340" y="492" width="20" height="8" fill="#5c3d1e"/>
<text x="350" y="485" text-anchor="middle" class="bldg-name">南宫门</text>
<rect x="340" y="782" width="20" height="8" fill="#5c3d1e"/>
<text x="350" y="800" text-anchor="middle" class="bldg-name">北宫门</text>
<rect x="192" y="630" width="8" height="20" fill="#5c3d1e"/>
<text x="178" y="645" text-anchor="end" class="bldg-name">东宫门</text>

<!-- 长乐宫 -->
<path d="M 520,490 L 930,490 Q 940,490 940,510 L 940,800 Q 935,820 915,820 L 560,830 Q 530,835 520,815 L 500,510 Q 500,490 520,490 Z" fill="#d8b878" fill-opacity="0.3" stroke="#7a5c2e" stroke-width="2.5"/>
<text x="720" y="530" text-anchor="middle" class="palace-name">长 乐 宫</text>
<text x="720" y="552" text-anchor="middle" class="palace-sub">（东宫 · 太后居所 · 7.24平方公里）</text>

<rect x="540" y="570" width="120" height="70" fill="#c49a5c" fill-opacity="0.4" stroke="#6b4a1e" stroke-width="1"/>
<text x="600" y="610" text-anchor="middle" class="bldg-name" font-weight="600">前殿区域</text>

<rect x="700" y="570" width="80" height="45" fill="#d4b88a" stroke="#8b6f47" stroke-width="0.8"/>
<text x="740" y="597" text-anchor="middle" class="bldg-name">长信殿</text>

<rect x="800" y="570" width="80" height="45" fill="#d4b88a" stroke="#8b6f47" stroke-width="0.8"/>
<text x="840" y="597" text-anchor="middle" class="bldg-name">临华殿等</text>

<ellipse cx="850" cy="710" rx="45" ry="30" fill="#a8c8d8" fill-opacity="0.5" stroke="#5a8aaa" stroke-width="1"/>
<text x="850" y="715" text-anchor="middle" class="bldg-name" fill="#2a5566">池苑</text>

<rect x="530" y="720" width="40" height="28" fill="#d4b88a" stroke="#8b6f47" stroke-width="0.8"/>
<text x="550" y="738" text-anchor="middle" class="bldg-name" font-size="8">钟室</text>

<!-- 武库 -->
<rect x="470" y="600" width="50" height="115" fill="#b85050" fill-opacity="0.35" stroke="#7a2020" stroke-width="2"/>
<text x="495" y="660" text-anchor="middle" font-size="13" fill="#5c1010" font-weight="700" transform="rotate(-90,495,660)">武 库</text>

<!-- 北宫 -->
<rect x="380" y="340" width="120" height="145" fill="#c8b880" fill-opacity="0.3" stroke="#7a6c2e" stroke-width="2"/>
<text x="440" y="415" text-anchor="middle" font-size="13" fill="#5c4d1e" font-weight="700">北 宫</text>
<text x="440" y="432" text-anchor="middle" class="palace-sub">（后妃退处之所）</text>

<!-- 桂宫（未建，醒目标注） -->
<rect x="210" y="300" width="165" height="180" fill="#ffddbb" fill-opacity="0.35" stroke="#cc4400" stroke-width="3" stroke-dasharray="10,5"/>
<rect x="230" y="365" width="125" height="50" fill="#fff3e0" stroke="#cc4400" stroke-width="1.5"/>
<text x="292" y="388" text-anchor="middle" font-size="16" fill="#cc2200" font-weight="800">桂 宫</text>
<text x="292" y="408" text-anchor="middle" font-size="10" fill="#8b2200" font-weight="600">⚠ 张骞出使时未建造</text>

<!-- 明光宫（未建，醒目标注） -->
<rect x="570" y="290" width="190" height="170" fill="#ffddbb" fill-opacity="0.35" stroke="#cc4400" stroke-width="3" stroke-dasharray="10,5"/>
<rect x="595" y="355" width="140" height="50" fill="#fff3e0" stroke="#cc4400" stroke-width="1.5"/>
<text x="665" y="378" text-anchor="middle" font-size="16" fill="#cc2200" font-weight="800">明 光 宫</text>
<text x="665" y="398" text-anchor="middle" font-size="10" fill="#8b2200" font-weight="600">⚠ 张骞出使时未建造</text>

<!-- 东西市 -->
<rect x="225" y="255" width="95" height="55" fill="#a8c090" fill-opacity="0.4" stroke="#4a6b2e" stroke-width="1.5"/>
<text x="272" y="283" text-anchor="middle" font-size="12" fill="#3a521e" font-weight="600">西 市</text>
<text x="272" y="298" text-anchor="middle" font-size="9" fill="#4a6b2e">（手工业作坊）</text>

<rect x="330" y="255" width="95" height="55" fill="#a8c090" fill-opacity="0.4" stroke="#4a6b2e" stroke-width="1.5"/>
<text x="378" y="283" text-anchor="middle" font-size="12" fill="#3a521e" font-weight="600">东 市</text>
<text x="378" y="298" text-anchor="middle" font-size="9" fill="#4a6b2e">（商业中心）</text>

<!-- 东第贵族区 -->
<rect x="195" y="440" width="165" height="45" fill="#c8b890" fill-opacity="0.2" stroke="#8b7a47" stroke-width="1" stroke-dasharray="3,3"/>
<text x="278" y="467" text-anchor="middle" font-size="10" fill="#5c4d2e">东 第（贵族宅邸区）</text>

<!-- 闾里 -->
<g fill="#e0d4b8" stroke="#b8a880" stroke-width="0.5" opacity="0.6">
  <rect x="525" y="265" width="38" height="28"/>
  <rect x="568" y="265" width="38" height="28"/>
  <rect x="611" y="265" width="38" height="28"/>
  <rect x="654" y="265" width="38" height="28"/>
  <rect x="697" y="265" width="38" height="28"/>
  <rect x="740" y="265" width="38" height="28"/>
  <rect x="783" y="265" width="38" height="28"/>
  <rect x="826" y="265" width="38" height="28"/>
  <rect x="525" y="298" width="38" height="24"/>
  <rect x="568" y="298" width="38" height="24"/>
  <rect x="611" y="298" width="38" height="24"/>
  <rect x="654" y="298" width="38" height="24"/>
  <rect x="697" y="298" width="38" height="24"/>
  <rect x="740" y="298" width="38" height="24"/>
  <rect x="783" y="298" width="38" height="24"/>
  <rect x="826" y="298" width="38" height="24"/>
  <rect x="869" y="298" width="38" height="24"/>
  <rect x="525" y="327" width="38" height="24"/>
  <rect x="568" y="327" width="38" height="24"/>
  <rect x="611" y="327" width="38" height="24"/>
  <rect x="654" y="327" width="38" height="24"/>
  <rect x="697" y="327" width="38" height="24"/>
  <rect x="740" y="327" width="38" height="24"/>
  <rect x="783" y="327" width="38" height="24"/>
  <rect x="826" y="327" width="38" height="24"/>
  <rect x="869" y="327" width="38" height="24"/>
</g>
<text x="700" y="258" text-anchor="middle" class="bldg-name" fill="#6b5d30">闾里（居民区 · 共160里）</text>

<!-- 建章宫（城外西侧，张骞出使时尚未建成，醒目标注未来位置） -->
<rect x="0" y="300" width="165" height="290" fill="#ffddbb" fill-opacity="0.3" stroke="#cc4400" stroke-width="3" stroke-dasharray="10,5"/>
<rect x="10" y="305" width="145" height="55" fill="#fff3e0" stroke="#cc4400" stroke-width="2"/>
<text x="82" y="327" text-anchor="middle" font-size="15" fill="#cc2200" font-weight="800">建 章 宫</text>
<text x="82" y="345" text-anchor="middle" font-size="10" fill="#cc0000" font-weight="700">⚠ 张骞出使时未建造</text>
<text x="82" y="358" text-anchor="middle" font-size="8" fill="#8b2200" font-weight="600">太初元年（前104年）始建</text>

<!-- 建章宫前殿（南部高堡子夯土台基） -->
<rect x="30" y="380" width="100" height="70" fill="#ffcc99" fill-opacity="0.3" stroke="#aa4400" stroke-width="1.5" stroke-dasharray="5,3"/>
<text x="80" y="415" text-anchor="middle" font-size="12" fill="#661100" font-weight="700">前殿</text>
<text x="80" y="432" text-anchor="middle" font-size="8" fill="#8b2200" font-weight="600">（高堡子夯土台基）</text>

<!-- 太液池（前殿西北） -->
<ellipse cx="55" cy="510" rx="40" ry="30" fill="#a8c8d8" fill-opacity="0.5" stroke="#2a6688" stroke-width="1.5" stroke-dasharray="5,3"/>
<text x="55" y="508" text-anchor="middle" font-size="11" fill="#1a4466" font-weight="700">太液池</text>
<text x="55" y="522" text-anchor="middle" font-size="7" fill="#2a5566" font-weight="600">（39万㎡·三仙山）</text>

<!-- 双凤阙（东门，对直城门方向） -->
<rect x="152" y="440" width="12" height="25" fill="#ffcc99" fill-opacity="0.4" stroke="#aa4400" stroke-width="1" stroke-dasharray="3,2"/>
<text x="148" y="480" text-anchor="end" font-size="9" fill="#661100" font-weight="700">双凤阙（东门）</text>

<!-- 神明台、井干楼（西侧偏北） -->
<rect x="10" y="500" width="30" height="35" fill="#ffcc99" fill-opacity="0.3" stroke="#aa4400" stroke-width="1" stroke-dasharray="3,2"/>
<text x="25" y="522" text-anchor="middle" font-size="9" fill="#661100" font-weight="700">神明台</text>
<text x="25" y="534" text-anchor="middle" font-size="7" fill="#8b2200" font-weight="600">井干楼</text>

<!-- 玉堂璧门（南门） -->
<rect x="70" y="565" width="25" height="12" fill="#ffcc99" fill-opacity="0.3" stroke="#aa4400" stroke-width="1" stroke-dasharray="3,2"/>
<text x="82" y="592" text-anchor="middle" font-size="9" fill="#661100" font-weight="700">玉堂璧门（南门）</text>

<!-- 飞阁辇道（跨城墙连接未央宫） -->
<path d="M 165,450 Q 175,455 180,490 L 195,530" fill="none" stroke="#cc4400" stroke-width="2.5" stroke-dasharray="5,4" opacity="0.7"/>
<text x="175" y="500" font-size="8" fill="#8b2200" font-weight="600" transform="rotate(-75,175,500)">飞阁辇道（跨城）</text>

<!-- 明渠 -->
<path d="M 180,410 Q 220,440 250,490 Q 300,560 280,660 Q 260,730 300,790 L 350,810" fill="none" stroke="#7aaacc" stroke-width="4" opacity="0.5" stroke-linecap="round"/>
<text x="215" y="600" font-size="9" fill="#2a5566" transform="rotate(-70,215,600)">明渠（供水排水）</text>

<!-- 张骞出使路线 -->
<path d="M 320,220 L 320,150 L 280,110" fill="none" stroke="#c00000" stroke-width="5" stroke-linecap="round" opacity="0.7" stroke-dasharray="12,6"/>
<polygon points="280,110 270,125 290,125" fill="#c00000"/>
<text x="240" y="130" class="route-text">张骞出使路线 →</text>
<text x="240" y="115" font-size="9" fill="#c00000">横门→渭桥→西域</text>

<!-- 指北针 -->
<g transform="translate(1030,940)">
  <circle cx="0" cy="0" r="28" fill="#faf6ea" stroke="#5c3d1e" stroke-width="1.5"/>
  <polygon points="0,-22 -7,9 0,3 7,9" fill="#c00000"/>
  <polygon points="0,22 -7,-9 0,-3 7,-9" fill="#5c3d1e"/>
  <text x="0" y="-30" text-anchor="middle" font-size="12" fill="#c00000" font-weight="700">N</text>
</g>

<!-- 图例 -->
<rect x="40" y="910" width="400" height="130" fill="#faf6ea" stroke="#c4b090" stroke-width="1" rx="4"/>
<text x="55" y="930" font-size="12" font-weight="700" fill="#5c3d1e">图例</text>

<rect x="55" y="940" width="22" height="12" fill="#d4b88a" stroke="#8b6f47"/>
<text x="85" y="950" class="legend-text">夯土城墙</text>

<rect x="180" y="940" width="22" height="12" fill="#c9a86c" fill-opacity="0.5" stroke="#7a5c2e"/>
<text x="210" y="950" class="legend-text">未央宫</text>

<rect x="290" y="940" width="22" height="12" fill="#d8b878" fill-opacity="0.5" stroke="#7a5c2e"/>
<text x="320" y="950" class="legend-text">长乐宫</text>

<rect x="55" y="960" width="22" height="12" fill="#b85050" fill-opacity="0.4" stroke="#7a2020"/>
<text x="85" y="970" class="legend-text">武库</text>

<rect x="180" y="960" width="22" height="12" fill="#a8c090" fill-opacity="0.4" stroke="#4a6b2e"/>
<text x="210" y="970" class="legend-text">东西市</text>

<rect x="290" y="960" width="22" height="12" fill="#a8c8d8" fill-opacity="0.6" stroke="#5a8aaa"/>
<text x="320" y="970" class="legend-text">水系</text>

<line x1="55" y1="990" x2="77" y2="990" stroke="#c9a96e" stroke-width="6"/>
<text x="85" y="994" class="legend-text">主干道</text>

<rect x="180" y="983" width="22" height="12" fill="#ffddbb" fill-opacity="0.4" stroke="#cc4400" stroke-width="1.5" stroke-dasharray="4,3"/>
<text x="210" y="994" class="legend-text" font-weight="600" fill="#8b2200">未建建筑（桂宫/明光宫/建章宫）</text>

<line x1="290" y1="990" x2="312" y2="990" stroke="#c00000" stroke-width="3" stroke-dasharray="6,3"/>
<polygon points="312,990 306,986 306,994" fill="#c00000"/>
<text x="320" y="994" class="legend-text">张骞出使路线</text>

<!-- 比例尺 -->
<text x="550" y="930" text-anchor="middle" font-size="11" fill="#666">比例尺：图上约2.4像素≈汉代1里（约415米） · 城墙周长25.7公里 · 面积约36平方公里</text>

<rect x="460" y="940" width="200" height="95" fill="#fff8e7" stroke="#c49a3c" stroke-width="1" rx="3"/>
<text x="470" y="957" font-size="10" font-weight="700" fill="#8b5a00">关键史实：</text>
<text x="470" y="972" font-size="9" fill="#5c4a2a">·张骞出使时（前139-前126年）桂宫/明光宫/建章宫均未建</text>
<text x="470" y="985" font-size="9" fill="#5c4a2a">·建章宫太初元年（前104年）始建，在张骞返回22年后</text>
<text x="470" y="998" font-size="9" fill="#5c4a2a">·城墙纯夯土无包砖，不规则"斗城"形</text>
<text x="470" y="1011" font-size="9" fill="#5c4a2a">·12城门每门3道，中为驰道</text>
<text x="470" y="1024" font-size="9" fill="#5c4a2a">·紫色虚线框标注建章宫未来位置及内部主要建筑</text>

</svg>
